<?xml version="1.0" standalone="no"?>
<!DOCTYPE svg PUBLIC "-//W3C//DTD SVG 1.1//EN" "http://www.w3.org/Graphics/SVG/1.1/DTD/svg11.dtd" >
<svg xmlns="http://www.w3.org/2000/svg">
<metadata>
This is a custom SVG webfont generated by Font Squirrel.
Copyright   : Copyright c 2007 by ALS All rights reserved
</metadata>
<defs>
<font id="webfont0gpv2fp2" horiz-adv-x="1024" >
<font-face units-per-em="2048" ascent="1536" descent="-512" />
<missing-glyph horiz-adv-x="500" />
<glyph unicode=" " />
<glyph unicode="a" horiz-adv-x="1556" d="M164 584v164h153v686h541q143 0 217 -13q154 -23 246 -134t92 -267q0 -184 -117 -311q-117 -125 -422 -125h-366v-127h829v-166h-829v-291h-191v291h-153v166h153v127h-153zM508 1264v-512h369q180 0 258.5 66.5t78.5 195.5q0 90 -44 153.5t-119 83.5q-47 12 -179 13 h-364z" />
<glyph unicode="b" horiz-adv-x="1169" d="M111 580l26 163h127l119 689h473q238 0 315 -146q39 -72 39 -207q0 -150 -69.5 -276.5t-182.5 -173.5q-111 -49 -270 -49h-295l-20 -123h682l-29 -164h-682l-49 -293h-158l51 293h-127l27 164h127l21 123h-125zM514 1276l-92 -533h258q137 0 209 35t119 115q49 82 49 182 q0 143 -90 180q-41 20 -154 21h-299z" />
<glyph unicode="c" horiz-adv-x="1542" d="M143 541v241h166v654h465q260 0 346 -23q129 -33 209 -143.5t80 -276.5q0 -182 -95 -292.5t-224 -139.5q-100 -20 -302 -20h-188v-123h748v-242h-748v-176h-291v176h-166v242h166v123h-166zM739 1192h-139v-408h158q168 0 229 23q55 20 89 69.5t34 112.5q0 76 -45 128 t-117 65q-57 10 -209 10z" />
<glyph unicode="d" horiz-adv-x="1462" d="M147 547l56 237h182l135 650h592q432 0 432 -359q0 -106 -41 -209.5t-104 -167.5q-61 -61 -132 -93t-188 -50q-63 -8 -260 -8h-190l-29 -135h746l-52 -236h-743l-37 -176h-293l37 176h-197l56 236h190l29 135h-189zM766 1198l-88 -414h92q231 0 311 29q74 29 121 92.5 t47 145.5q0 102 -88 131q-43 16 -184 16h-211z" />
<glyph unicode="e" horiz-adv-x="1452" d="M184 631v86h201v512q0 88 -57 106q-45 16 -144 27v72h658q197 0 321 -97q125 -98 125 -258q0 -221 -166 -342q-145 -106 -360 -106h-162v-103h633v-86h-633v-247q0 -80 59 -103q10 -6 64 -12l86 -8v-72h-616v72l69 6q43 2 66 14q57 25 57 103v247h-201v86h201v103h-201z M981 836q57 84 57 192q0 139 -61 223q-74 98 -234 99h-143v-633h102q199 0 279 119z" />
<glyph unicode="f" horiz-adv-x="1359" d="M201 633l20 84h197l121 518q6 31 6 41q0 49 -39 65q-53 20 -135 25l14 68h637q174 0 281.5 -78t107.5 -211q0 -238 -192 -379q-176 -133 -431 -133h-172l-26 -109h643l-19 -82h-643l-59 -252q-4 -29 -4 -36q0 -49 41 -68q51 -18 143 -18l-14 -68h-617l15 68q104 6 141 18 q61 23 80 104l57 252h-198l20 82h199l24 109h-198zM1087 870q76 106 76 252q0 106 -55 164q-66 70 -197 70h-131l-145 -639h115q233 -1 337 153z" />
<glyph unicode="g" horiz-adv-x="1650" d="M164 616v97h209v504q0 76 -64 104q-53 23 -145 35v78h790q553 0 553 -361q0 -236 -186 -350q-170 -104 -471 -105h-117v-108h719v-96h-719v-201q0 -74 66 -104q41 -16 141 -31v-78h-776v78q12 2 47 6t61.5 8t36.5 8q37 16 50.5 39t13.5 66v209h-209v96h209v106h-209z M1112 1022q0 168 -66.5 243.5t-228.5 75.5h-84v-628h43q336 0 336 309z" />
<glyph unicode="h" horiz-adv-x="1611" d="M203 616l18 91h215l113 491q8 39 8 57q0 41 -43 66t-139 39l16 74h778q494 0 494 -301q0 -256 -219 -390q-209 -127 -526 -127h-146l-22 -96h735l-21 -88h-737l-45 -203q-8 -31 -8 -57q0 -45 39 -66.5t145 -31.5l-18 -74h-779l17 74q43 0 78 6q47 6 71 16q74 25 90 101 l54 235h-211l20 88h211l23 96h-211zM1264 1128q0 113 -59.5 165.5t-190.5 52.5h-72l-147 -639h65q211 0 311 122q93 113 93 299z" />
<glyph unicode="i" horiz-adv-x="1398" d="M184 535v163h146v736h360q246 0 373 -91q172 -119 172 -342q0 -193 -127 -319q-147 -147 -426 -147h-162v-125h643v-164h-643v-246h-190v246h-146v164h146v125h-146zM1036 995q0 154 -102 219q-82 55 -256 56h-158v-574h129q119 0 188.5 18.5t116.5 67.5q82 82 82 213z " />
<glyph unicode="j" horiz-adv-x="1523" d="M143 469v268h148v695h557q236 0 375 -95q168 -115 168 -358q0 -215 -121 -340q-82 -82 -178 -123q-111 -47 -252 -47h-191v-100h682v-269h-682v-100h-358v100h-148v269h148v100h-148zM1022 971q0 59 -27.5 102t-70.5 64q-61 29 -224 28h-51v-430h27q131 0 174 6 q72 10 111 50q37 35 49 73.5t12 106.5z" />
<glyph unicode="k" horiz-adv-x="1327" d="M123 641v70h207v467q0 135 -29 170q-39 45 -123 45h-53v41h524q190 0 302 -40t187.5 -134.5t75.5 -221.5q0 -180 -116.5 -288.5t-325.5 -108.5h-242v-90h621v-70h-621v-227q0 -135 31 -168q41 -47 121 -47h55v-39h-612v39h53q90 0 131 59q20 33 21 156v227h-207v70h207 v90h-207zM530 1327v-616h175q111 0 190 84q80 86 80 221q0 166 -81 249t-224 83q-58 -1 -140 -21z" />
<glyph unicode="l" horiz-adv-x="1386" d="M264 664l19 71h159l109 373q41 141 41 197q0 41 -33 63.5t-129 26.5l12 39h564q223 0 331 -97q111 -96 111 -231q0 -113 -71.5 -215.5t-205.5 -163.5q-135 -63 -297 -63h-264l-30 -107h690l-17 -74h-696l-49 -176q-41 -141 -41 -184q0 -37 32.5 -57.5t133.5 -26.5 l-12 -39h-570l12 39q113 0 154 39q45 39 96 213l56 192h-144l19 74h147l31 107h-158zM805 1337l-174 -602h200q250 0 359 191q53 96 53 198q0 109 -66.5 170.5t-197.5 61.5q-74 -1 -174 -19z" />
<glyph unicode="m" horiz-adv-x="1437" d="M123 649v82h201v451q0 119 -15 145q-16 31 -51 49q-33 18 -133 19v39h625q307 0 440 -111q135 -111 135 -274q0 -139 -86 -237.5t-240 -135.5q-111 -27 -344 -27v-92h627v-82h-627v-223q0 -123 13 -148q12 -27 51 -47q37 -18 133 -18v-39h-727v39q154 0 184 65 q14 29 15 148v223h-201v82h201v92h-201zM698 1352h-43v-621h52q268 0 268 311q-1 310 -277 310z" />
<glyph unicode="n" horiz-adv-x="1447" d="M203 641l26 90h203l127 438q27 86 27 131q0 86 -160 95l10 39h568q238 0 337 -60q158 -90 158 -278q0 -178 -158 -318q-156 -137 -426 -137h-200l-35 -121h629l-25 -90h-631l-49 -172q-27 -90 -26 -119q0 -51 34.5 -73.5t143.5 -26.5l-15 -39h-700l12 39q84 2 122 17.5 t65 52.5q18 25 55 149l49 172h-201l23 90h205l35 121h-203zM915 1348l-174 -617h113q145 0 229 133t84 279q0 98 -54 151.5t-148 53.5h-50z" />
<glyph unicode="o" horiz-adv-x="1298" d="M289 0v281h-135v145h135v143h-135v146h135v721h465q172 0 286.5 -91.5t114.5 -281.5q0 -492 -653 -492h-23v-145h635v-145h-635v-281h-190zM479 1292v-577h66q408 0 407 332q0 125 -74.5 185t-175.5 60h-223z" />
<glyph unicode="p" horiz-adv-x="1515" d="M143 569v226h136v686h661q217 0 329.5 -92.5t112.5 -303.5q0 -227 -137 -369.5t-379 -142.5h-217v-88h598v-225h-598v-260h-370v260h-136v225h136v84h-136zM649 1221v-426q51 0 89 3t88.5 18t82 42t55 77t23.5 120q0 180 -221 180q-49 0 -117 -14z" />
<glyph unicode="q" horiz-adv-x="1308" d="M123 532v164h135v738h387q248 0 379 -91q172 -117 172 -342q0 -197 -127 -319q-147 -147 -430 -147h-190v-138h688v-161h-688v-236h-191v236h-135v161h135v135h-135zM997 995q0 147 -104 217q-88 57 -256 58h-188v-574h159q213 0 307 88q82 82 82 211z" />
<glyph unicode="r" horiz-adv-x="1259" d="M111 539l34 153h152l172 744h379q240 0 356 -90q117 -88 117 -256q0 -246 -195 -406q-172 -145 -462 -145h-209l-35 -150h727l-33 -156h-731l-53 -233h-193l53 233h-149l35 156h151l35 150h-151zM1116 1057q0 113 -67 162q-76 59 -244 59h-178l-138 -586h173 q221 0 325 90q129 109 129 275z" />
<glyph unicode="s" horiz-adv-x="1697" d="M123 500v288h194v748h654q268 0 424 -100q190 -121 190 -385q0 -227 -139 -367q-96 -94 -210 -139t-275 -45h-246v-92h790v-291h-790v-117h-398v117h-194v291h194v92h-194zM1176 1042q0 59 -34 107.5t-83 69.5q-70 31 -277 30h-67v-461h112q203 0 277 64q72 59 72 190z " />
<glyph unicode="t" horiz-adv-x="1632" d="M154 467l63 272h209l162 697h516q291 0 426 -86q154 -96 153 -312q0 -256 -213 -413.5t-593 -157.5h-142l-20 -88h774l-59 -270h-777l-24 -109h-373l25 109h-209l61 270h209l20 88h-208zM1288 1004q0 164 -241 163h-150l-98 -430h133q168 0 262 69t94 198z" />
<glyph unicode="u" horiz-adv-x="1452" d="M348 0v217h-246v205h246v164h-246v205h246v643h547q104 0 184 -25q82 -25 146 -80q135 -117 135 -319.5t-135 -319.5q-63 -55 -146 -80q-80 -25 -184 -24h-203v-164h590v-205h-590v-217h-344zM692 1159v-368h115q78 0 117 22q80 43 80 162t-80 162q-31 16 -60 18 q-29 4 -57 4h-115z" />
<glyph unicode="v" horiz-adv-x="1296" d="M143 1421h562q190 0 301 -55q168 -88 168 -301q0 -193 -136 -309q-139 -121 -401 -121h-107v-123h615v-78h-615v-321l215 -37v-76h-602v76l197 37v321h-197v78h197v123h-197v78h197v596l-197 37v75zM530 713h97q190 0 274 90q68 74 68 211q0 174 -109 258q-90 72 -260 71 h-70v-630z" />
<glyph unicode="w" horiz-adv-x="1589" d="M670 524l-47 -135q162 -13 372 -13q53 0 109 1q86 0 127 4q45 4 67 4q63 0 64 -53q0 -23 -14.5 -37t-46 -18.5t-57.5 -5.5h-20q-23 0 -56 1q-50 2 -72 2q-168 0 -504 21l-45 -137q-14 -45 -15.5 -70t6 -41t7.5 -31q0 -70 -70 -69q-27 0 -47 22.5t-20 61.5q0 72 32 153 l41 115q-197 6 -248 6q-111 0 -110 62q0 37 34 56q14 8 34 8q27 0 65 -15q139 -18 258 -21l51 144q-78 4 -121 8q-88 8 -129 10q-113 6 -112 66q0 37 34 56q14 8 34 8q27 0 65 -15q137 -25 258 -33l29 78q104 283 208 510q39 86 109 86q20 0 36.5 -12.5t13.5 -51.5t-44 -96 l-40 -61l-34 -59q-14 -26 -31 -63l-26 -57q-8 -18 -24 -58l-21 -50q-45 -104 -65 -180q82 -10 157 -11q182 0 313.5 61.5t195 166t63.5 205.5q0 131 -109 227q-135 121 -403 121q-297 0 -521 -140q-117 -72 -116 -147q0 -90 157 -98q66 -4 66 -43q0 -43 -70 -43 q-121 0 -192 49q-72 51 -72 127q0 143 184 250q242 139 574 139q338 0 506 -172q111 -113 110 -262q0 -139 -83 -268.5t-242.5 -199t-391.5 -69.5q-87 0 -161 6z" />
<glyph unicode="&#xa0;" />
<glyph unicode="&#xaa;" horiz-adv-x="1556" d="M164 584v164h153v686h541q143 0 217 -13q154 -23 246 -134t92 -267q0 -184 -117 -311q-117 -125 -422 -125h-366v-127h829v-166h-829v-291h-191v291h-153v166h153v127h-153zM508 1264v-512h369q180 0 258.5 66.5t78.5 195.5q0 90 -44 153.5t-119 83.5q-47 12 -179 13 h-364z" />
<glyph unicode="&#xba;" horiz-adv-x="1298" d="M289 0v281h-135v145h135v143h-135v146h135v721h465q172 0 286.5 -91.5t114.5 -281.5q0 -492 -653 -492h-23v-145h635v-145h-635v-281h-190zM479 1292v-577h66q408 0 407 332q0 125 -74.5 185t-175.5 60h-223z" />
<glyph unicode="&#xff;" horiz-adv-x="1705" />
<glyph unicode="&#x153;" horiz-adv-x="2750" d="M1482 631v86h201v512q0 88 -57 106q-45 16 -144 27v72h658q197 0 321 -97q125 -98 125 -258q0 -221 -166 -342q-145 -106 -360 -106h-162v-103h633v-86h-633v-247q0 -80 59 -103q10 -6 64 -12l86 -8v-72h-616v72l69 6q43 2 66 14q57 25 57 103v247h-201v86h201v103h-201z M2279 836q57 84 57 192q0 139 -61 223q-74 98 -234 99h-143v-633h102q199 0 279 119zM289 0v281h-135v145h135v143h-135v146h135v721h465q172 0 286.5 -91.5t114.5 -281.5q0 -492 -653 -492h-23v-145h635v-145h-635v-281h-190zM479 1292v-577h66q408 0 407 332 q0 125 -74.5 185t-175.5 60h-223z" />
<glyph unicode="&#x2000;" horiz-adv-x="768" />
<glyph unicode="&#x2001;" horiz-adv-x="1536" />
<glyph unicode="&#x2002;" horiz-adv-x="768" />
<glyph unicode="&#x2003;" horiz-adv-x="1536" />
<glyph unicode="&#x2004;" horiz-adv-x="512" />
<glyph unicode="&#x2005;" horiz-adv-x="382" />
<glyph unicode="&#x2006;" horiz-adv-x="256" />
<glyph unicode="&#x2007;" horiz-adv-x="256" />
<glyph unicode="&#x2008;" horiz-adv-x="190" />
<glyph unicode="&#x2009;" horiz-adv-x="307" />
<glyph unicode="&#x200a;" horiz-adv-x="83" />
<glyph unicode="&#x2013;" d="M205 512v205h614v-205h-614z" />
<glyph unicode="&#x2014;" horiz-adv-x="2048" d="M205 512v205h1638v-205h-1638z" />
<glyph unicode="&#x202f;" horiz-adv-x="307" />
<glyph unicode="&#x205f;" horiz-adv-x="382" />
<glyph unicode="&#xe000;" horiz-adv-x="500" d="M0 0v0v0v0v0z" />
<glyph unicode="&#xfb01;" horiz-adv-x="2758" d="M1544 535v163h146v736h360q246 0 373 -91q172 -119 172 -342q0 -193 -127 -319q-147 -147 -426 -147h-162v-125h643v-164h-643v-246h-190v246h-146v164h146v125h-146zM2396 995q0 154 -102 219q-82 55 -256 56h-158v-574h129q119 0 188.5 18.5t116.5 67.5q82 82 82 213z M201 633l20 84h197l121 518q6 31 6 41q0 49 -39 65q-53 20 -135 25l14 68h637q174 0 281.5 -78t107.5 -211q0 -238 -192 -379q-176 -133 -431 -133h-172l-26 -109h643l-19 -82h-643l-59 -252q-4 -29 -4 -36q0 -49 41 -68q51 -18 143 -18l-14 -68h-617l15 68q104 6 141 18 q61 23 80 104l57 252h-198l20 82h199l24 109h-198zM1087 870q76 106 76 252q0 106 -55 164q-66 70 -197 70h-131l-145 -639h115q233 -1 337 153z" />
<glyph unicode="&#xfb02;" horiz-adv-x="2746" d="M1624 664l19 71h159l109 373q41 141 41 197q0 41 -33 63.5t-129 26.5l12 39h564q223 0 331 -97q111 -96 111 -231q0 -113 -71.5 -215.5t-205.5 -163.5q-135 -63 -297 -63h-264l-30 -107h690l-17 -74h-696l-49 -176q-41 -141 -41 -184q0 -37 32.5 -57.5t133.5 -26.5 l-12 -39h-570l12 39q113 0 154 39q45 39 96 213l56 192h-144l19 74h147l31 107h-158zM2165 1337l-174 -602h200q250 0 359 191q53 96 53 198q0 109 -66.5 170.5t-197.5 61.5q-74 -1 -174 -19zM201 633l20 84h197l121 518q6 31 6 41q0 49 -39 65q-53 20 -135 25l14 68h637 q174 0 281.5 -78t107.5 -211q0 -238 -192 -379q-176 -133 -431 -133h-172l-26 -109h643l-19 -82h-643l-59 -252q-4 -29 -4 -36q0 -49 41 -68q51 -18 143 -18l-14 -68h-617l15 68q104 6 141 18q61 23 80 104l57 252h-198l20 82h199l24 109h-198zM1087 870q76 106 76 252 q0 106 -55 164q-66 70 -197 70h-131l-145 -639h115q233 -1 337 153z" />
<glyph unicode="&#xfb03;" horiz-adv-x="4118" d="M2904 535v163h146v736h360q246 0 373 -91q172 -119 172 -342q0 -193 -127 -319q-147 -147 -426 -147h-162v-125h643v-164h-643v-246h-190v246h-146v164h146v125h-146zM3756 995q0 154 -102 219q-82 55 -256 56h-158v-574h129q119 0 188.5 18.5t116.5 67.5q82 82 82 213z M1561 633l20 84h197l121 518q6 31 6 41q0 49 -39 65q-53 20 -135 25l14 68h637q174 0 281.5 -78t107.5 -211q0 -238 -192 -379q-176 -133 -431 -133h-172l-26 -109h643l-19 -82h-643l-59 -252q-4 -29 -4 -36q0 -49 41 -68q51 -18 143 -18l-14 -68h-617l15 68q104 6 141 18 q61 23 80 104l57 252h-198l20 82h199l24 109h-198zM2447 870q76 106 76 252q0 106 -55 164q-66 70 -197 70h-131l-145 -639h115q233 -1 337 153zM201 633l20 84h197l121 518q6 31 6 41q0 49 -39 65q-53 20 -135 25l14 68h637q174 0 281.5 -78t107.5 -211q0 -238 -192 -379 q-176 -133 -431 -133h-172l-26 -109h643l-19 -82h-643l-59 -252q-4 -29 -4 -36q0 -49 41 -68q51 -18 143 -18l-14 -68h-617l15 68q104 6 141 18q61 23 80 104l57 252h-198l20 82h199l24 109h-198zM1087 870q76 106 76 252q0 106 -55 164q-66 70 -197 70h-131l-145 -639h115 q233 -1 337 153z" />
<glyph unicode="&#xfb04;" horiz-adv-x="4106" d="M2984 664l19 71h159l109 373q41 141 41 197q0 41 -33 63.5t-129 26.5l12 39h564q223 0 331 -97q111 -96 111 -231q0 -113 -71.5 -215.5t-205.5 -163.5q-135 -63 -297 -63h-264l-30 -107h690l-17 -74h-696l-49 -176q-41 -141 -41 -184q0 -37 32.5 -57.5t133.5 -26.5 l-12 -39h-570l12 39q113 0 154 39q45 39 96 213l56 192h-144l19 74h147l31 107h-158zM3525 1337l-174 -602h200q250 0 359 191q53 96 53 198q0 109 -66.5 170.5t-197.5 61.5q-74 -1 -174 -19zM1561 633l20 84h197l121 518q6 31 6 41q0 49 -39 65q-53 20 -135 25l14 68h637 q174 0 281.5 -78t107.5 -211q0 -238 -192 -379q-176 -133 -431 -133h-172l-26 -109h643l-19 -82h-643l-59 -252q-4 -29 -4 -36q0 -49 41 -68q51 -18 143 -18l-14 -68h-617l15 68q104 6 141 18q61 23 80 104l57 252h-198l20 82h199l24 109h-198zM2447 870q76 106 76 252 q0 106 -55 164q-66 70 -197 70h-131l-145 -639h115q233 -1 337 153zM201 633l20 84h197l121 518q6 31 6 41q0 49 -39 65q-53 20 -135 25l14 68h637q174 0 281.5 -78t107.5 -211q0 -238 -192 -379q-176 -133 -431 -133h-172l-26 -109h643l-19 -82h-643l-59 -252 q-4 -29 -4 -36q0 -49 41 -68q51 -18 143 -18l-14 -68h-617l15 68q104 6 141 18q61 23 80 104l57 252h-198l20 82h199l24 109h-198zM1087 870q76 106 76 252q0 106 -55 164q-66 70 -197 70h-131l-145 -639h115q233 -1 337 153z" />
</font>
</defs>
</svg>
